<?xml version="1.0" standalone="no"?>
<!DOCTYPE svg PUBLIC "-//W3C//DTD SVG 20010904//EN"
 "http://www.w3.org/TR/2001/REC-SVG-20010904/DTD/svg10.dtd">
<svg version="1.0" xmlns="http://www.w3.org/2000/svg"
 width="80.000000pt" height="80.000000pt" viewBox="0 0 80.000000 80.000000"
 preserveAspectRatio="xMidYMid meet">

<g transform="translate(0.000000,80.000000) scale(0.100000,-0.100000)"
fill="#000000" stroke="none">
<path d="M129 671 c-29 -29 -29 -30 -29 -154 0 -99 -3 -127 -15 -137 -19 -16
-19 -44 0 -60 11 -9 15 -33 15 -87 0 -69 2 -77 29 -104 l29 -29 242 0 242 0
29 29 c27 27 29 35 29 104 0 54 4 78 15 87 8 7 15 20 15 30 0 10 -7 23 -15 30
-12 10 -15 38 -15 137 0 124 0 125 -29 154 l-29 29 -242 0 -242 0 -29 -29z
m528 -13 c22 -20 23 -29 23 -145 l0 -123 -48 0 c-49 0 -49 0 -62 43 -7 25 -28
57 -52 80 -37 35 -39 39 -24 56 22 24 21 26 -18 50 -20 13 -50 21 -76 21 -26
0 -56 -8 -76 -21 -39 -24 -40 -26 -18 -50 15 -17 13 -21 -24 -56 -24 -23 -45
-55 -52 -80 -13 -43 -13 -43 -62 -43 l-48 0 0 122 c0 178 -17 168 279 168 227
0 235 -1 258 -22z m-193 -60 c15 -24 -22 -72 -58 -76 -47 -6 -92 52 -65 84 17
21 108 15 123 -8z m-148 -109 c-19 -16 -41 -45 -47 -64 -12 -33 -29 -47 -29
-25 0 44 78 139 102 124 5 -3 -6 -19 -26 -35z m208 -12 c26 -34 44 -87 29 -87
-5 0 -15 16 -22 35 -7 19 -28 47 -46 62 -19 15 -31 31 -29 35 8 13 41 -9 68
-45z m-43 -14 c15 -15 30 -38 34 -50 6 -23 6 -23 -115 -23 -121 0 -121 0 -115
23 9 27 43 66 70 78 36 16 96 3 126 -28z m227 -111 c2 -7 -4 -16 -14 -18 -17
-5 -19 -14 -15 -85 3 -73 1 -83 -20 -105 l-22 -24 -237 0 -237 0 -22 24 c-21
22 -23 32 -20 105 3 58 1 81 -8 81 -16 0 -26 17 -18 30 10 17 607 9 613 -8z"/>
<path d="M350 590 c0 -5 5 -10 10 -10 6 0 10 5 10 10 0 6 -4 10 -10 10 -5 0
-10 -4 -10 -10z"/>
<path d="M390 590 c0 -5 5 -10 10 -10 6 0 10 5 10 10 0 6 -4 10 -10 10 -5 0
-10 -4 -10 -10z"/>
<path d="M430 590 c0 -5 5 -10 10 -10 6 0 10 5 10 10 0 6 -4 10 -10 10 -5 0
-10 -4 -10 -10z"/>
<path d="M150 320 c0 -5 5 -10 10 -10 6 0 10 5 10 10 0 6 -4 10 -10 10 -5 0
-10 -4 -10 -10z"/>
<path d="M190 320 c0 -5 5 -10 10 -10 6 0 10 5 10 10 0 6 -4 10 -10 10 -5 0
-10 -4 -10 -10z"/>
<path d="M230 320 c0 -5 5 -10 10 -10 6 0 10 5 10 10 0 6 -4 10 -10 10 -5 0
-10 -4 -10 -10z"/>
<path d="M270 320 c0 -5 5 -10 10 -10 6 0 10 5 10 10 0 6 -4 10 -10 10 -5 0
-10 -4 -10 -10z"/>
<path d="M310 320 c0 -5 5 -10 10 -10 6 0 10 5 10 10 0 6 -4 10 -10 10 -5 0
-10 -4 -10 -10z"/>
<path d="M350 320 c0 -5 5 -10 10 -10 6 0 10 5 10 10 0 6 -4 10 -10 10 -5 0
-10 -4 -10 -10z"/>
<path d="M390 320 c0 -5 5 -10 10 -10 6 0 10 5 10 10 0 6 -4 10 -10 10 -5 0
-10 -4 -10 -10z"/>
<path d="M430 320 c0 -5 5 -10 10 -10 6 0 10 5 10 10 0 6 -4 10 -10 10 -5 0
-10 -4 -10 -10z"/>
<path d="M470 320 c0 -5 5 -10 10 -10 6 0 10 5 10 10 0 6 -4 10 -10 10 -5 0
-10 -4 -10 -10z"/>
<path d="M510 320 c0 -5 5 -10 10 -10 6 0 10 5 10 10 0 6 -4 10 -10 10 -5 0
-10 -4 -10 -10z"/>
<path d="M550 320 c0 -5 5 -10 10 -10 6 0 10 5 10 10 0 6 -4 10 -10 10 -5 0
-10 -4 -10 -10z"/>
<path d="M590 320 c0 -5 5 -10 10 -10 6 0 10 5 10 10 0 6 -4 10 -10 10 -5 0
-10 -4 -10 -10z"/>
<path d="M630 320 c0 -5 5 -10 10 -10 6 0 10 5 10 10 0 6 -4 10 -10 10 -5 0
-10 -4 -10 -10z"/>
</g>
</svg>
